<svg xmlns="http://www.w3.org/2000/svg" version="1.1" xmlns:xlink="http://www.w3.org/1999/xlink" xmlns:svgjs="http://svgjs.dev/svgjs" width="1500" height="462" viewBox="0 0 1500 462"><g transform="matrix(1,0,0,1,-0.9090909090909918,0.07779690229017433)"><svg viewBox="0 0 396 122" data-background-color="#000000" preserveAspectRatio="xMidYMid meet" height="462" width="1500" xmlns="http://www.w3.org/2000/svg" xmlns:xlink="http://www.w3.org/1999/xlink"><g id="tight-bounds" transform="matrix(1,0,0,1,0.2400000000000091,-0.020543770734633426)"><svg viewBox="0 0 395.52 122.04108754146925" height="122.04108754146925" width="395.52"><g><svg viewBox="0 0 588.9882175524347 181.73736503643462" height="122.04108754146925" width="395.52"><g transform="matrix(1,0,0,1,193.46821755243462,25.117103272039813)"><svg viewBox="0 0 395.52 131.503158492355" height="131.503158492355" width="395.52"><g id="textblocktransform"><svg viewBox="0 0 395.52 131.503158492355" height="131.503158492355" width="395.52" id="textblock"><g><rect width="395.52" height="114.90712035531328" fill="none" stroke-width="8.962371322224001" stroke="#c4f649" data-fill-palette-color="none" data-stroke-palette-color="tertiary"></rect><rect width="395.52" height="41.39593296003161" y="114.90712035531328" fill="#c4f649" data-fill-palette-color="tertiary"></rect></g><g><svg viewBox="0 0 395.52 113.90712035531328" height="113.90712035531328" width="395.52"><g transform="matrix(1,0,0,1,23.461705032,23.461705032)"><svg width="348.596589936" viewBox="1.49 -36.01 245.03 46.51" height="66.98371029131329" data-palette-color="#ffffff"><g class="wordmark-text-0" data-fill-palette-color="primary" id="text-0"><path d="M1.49-30L1.49-35.01 29.49-35.01 29.49-30 17.99-30 17.99 0 12.99 0 12.99-30 1.49-30ZM57-21.19L57-10.55 39.79-10.55 39.79-4.81 57-4.81 57 0 39.79 0Q38.82 0 37.94-0.38 37.06-0.76 36.41-1.4 35.76-2.05 35.39-2.93 35.01-3.81 35.01-4.81L35.01-4.81 35.01-21.19Q35.01-22.19 35.39-23.07 35.76-23.95 36.41-24.6 37.06-25.24 37.94-25.62 38.82-26 39.79-26L39.79-26 52.19-26Q53.2-26 54.07-25.62 54.95-25.24 55.6-24.6 56.25-23.95 56.63-23.07 57-22.19 57-21.19L57-21.19ZM52.19-21.19L39.79-21.19 39.79-15.36 52.19-15.36 52.19-21.19ZM82.2-21.19L69.79-21.19 69.79-4.81 82.2-4.81 82.2-9.2 87.01-9.2 87.01-4.81Q87.01-3.81 86.63-2.93 86.25-2.05 85.6-1.4 84.96-0.76 84.08-0.38 83.2 0 82.2 0L82.2 0 69.79 0Q68.82 0 67.94-0.38 67.06-0.76 66.41-1.4 65.77-2.05 65.39-2.93 65.01-3.81 65.01-4.81L65.01-4.81 65.01-21.19Q65.01-22.19 65.39-23.07 65.77-23.95 66.41-24.6 67.06-25.24 67.94-25.62 68.82-26 69.79-26L69.79-26 82.2-26Q83.2-26 84.08-25.62 84.96-25.24 85.6-24.6 86.25-23.95 86.63-23.07 87.01-22.19 87.01-21.19L87.01-21.19 87.01-16.8 82.2-16.8 82.2-21.19ZM118.01-21.19L118.01 0 113.2 0 113.2-21.19 99.8-21.19 99.8 0 95.01 0 95.01-36.01 99.8-36.01 99.8-21.41Q99.85-22.36 100.24-23.21 100.63-24.05 101.27-24.67 101.92-25.29 102.78-25.65 103.63-26 104.61-26L104.61-26 113.2-26Q114.2-26 115.08-25.62 115.96-25.24 116.61-24.6 117.25-23.95 117.63-23.07 118.01-22.19 118.01-21.19L118.01-21.19ZM148.5-14.99L131.51-14.99Q130.48-14.99 129.57-15.39 128.65-15.8 127.97-16.47 127.28-17.14 126.89-18.05 126.5-18.97 126.5-20L126.5-20 126.5-30Q126.5-31.03 126.89-31.95 127.28-32.86 127.97-33.53 128.65-34.2 129.57-34.61 130.48-35.01 131.51-35.01L131.51-35.01 148.5-35.01Q149.53-35.01 150.44-34.61 151.36-34.2 152.04-33.53 152.72-32.86 153.12-31.95 153.51-31.03 153.51-30L153.51-30 153.51-25.49 148.5-25.49 148.5-30 131.51-30 131.51-20 148.5-20Q149.53-20 150.44-19.6 151.36-19.21 152.04-18.53 152.72-17.85 153.12-16.93 153.51-16.02 153.51-14.99L153.51-14.99 153.51-5Q153.51-3.98 153.12-3.06 152.72-2.15 152.04-1.46 151.36-0.78 150.44-0.39 149.53 0 148.5 0L148.5 0 131.02 0Q129.99 0 129.08-0.39 128.16-0.78 127.48-1.46 126.8-2.15 126.41-3.06 126.02-3.98 126.02-5L126.02-5 126.02-9.5 131.02-9.5 131.02-5 148.5-5 148.5-14.99ZM185.02-21.19L185.02 0 180.21 0 180.21-21.19 166.81-21.19 166.81 0 162.02 0 162.02-36.01 166.81-36.01 166.81-21.41Q166.86-22.36 167.25-23.21 167.64-24.05 168.29-24.67 168.93-25.29 169.79-25.65 170.64-26 171.62-26L171.62-26 180.21-26Q181.21-26 182.09-25.62 182.97-25.24 183.62-24.6 184.26-23.95 184.64-23.07 185.02-22.19 185.02-21.19L185.02-21.19ZM215.51-21.19L215.51-4.81Q215.51-3.81 215.13-2.93 214.76-2.05 214.11-1.4 213.46-0.76 212.59-0.38 211.73 0 210.73 0L210.73 0 197.81 0Q196.84 0 195.96-0.38 195.08-0.76 194.43-1.4 193.78-2.05 193.41-2.93 193.03-3.81 193.03-4.81L193.03-4.81 193.03-21.19Q193.03-22.19 193.41-23.07 193.78-23.95 194.43-24.6 195.08-25.24 195.96-25.62 196.84-26 197.81-26L197.81-26 210.73-26Q211.73-26 212.59-25.62 213.46-25.24 214.11-24.6 214.76-23.95 215.13-23.07 215.51-22.19 215.51-21.19L215.51-21.19ZM210.73-21.19L197.81-21.19 197.81-4.81 210.73-4.81 210.73-21.19ZM246.52-21.19L246.52-4.81Q246.52-3.81 246.14-2.93 245.76-2.05 245.11-1.4 244.46-0.76 243.59-0.38 242.71 0 241.71 0L241.71 0 228.3 0 228.3 10.5 223.52 10.5 223.52-26 228.3-26 228.3-21.61Q228.38-22.53 228.79-23.33 229.21-24.12 229.84-24.72 230.48-25.32 231.32-25.66 232.16-26 233.11-26L233.11-26 241.71-26Q242.71-26 243.59-25.62 244.46-25.24 245.11-24.6 245.76-23.95 246.14-23.07 246.52-22.19 246.52-21.19L246.52-21.19ZM228.3-4.81L241.71-4.81 241.71-21.19 228.3-21.19 228.3-4.81Z" fill="#000" data-fill-palette-color="primary"></path></g></svg></g></svg></g><g transform="matrix(1,0,0,1,0,113.90712035531328)"><svg viewBox="0 0 232.209792 17.59603813704172" height="17.59603813704172" width="232.209792"><g transform="matrix(1,0,0,1,20,3.2)"><svg width="192.209792" viewBox="4.49 -45 772.39 45" height="11.19603813704172" data-palette-color="#000000"><path d="M9.5-27.15L9.5 0 4.49 0 4.49-35.01 9.5-35.01 30.54-7.86 30.54-35.01 35.55-35.01 35.55 0 30.54 0 9.5-27.15ZM66.53-21.19L66.53-4.81Q66.53-3.81 66.15-2.93 65.77-2.05 65.12-1.4 64.48-0.76 63.61-0.38 62.74 0 61.74 0L61.74 0 48.83 0Q47.85 0 46.97-0.38 46.09-0.76 45.44-1.4 44.8-2.05 44.42-2.93 44.04-3.81 44.04-4.81L44.04-4.81 44.04-21.19Q44.04-22.19 44.42-23.07 44.8-23.95 45.44-24.6 46.09-25.24 46.97-25.62 47.85-26 48.83-26L48.83-26 61.74-26Q62.74-26 63.61-25.62 64.48-25.24 65.12-24.6 65.77-23.95 66.15-23.07 66.53-22.19 66.53-21.19L66.53-21.19ZM61.74-21.19L48.83-21.19 48.83-4.81 61.74-4.81 61.74-21.19ZM73.02-21.19L73.02-26 79.37-26 79.37-34.01 84.17-34.01 84.17-26 92.72-26 92.72-21.19 84.17-21.19 84.17-4.81 92.72-4.81 92.72 0 84.17 0Q83.2 0 82.32-0.38 81.44-0.76 80.78-1.4 80.12-2.05 79.74-2.93 79.37-3.81 79.37-4.81L79.37-4.81 79.37-21.19 73.02-21.19ZM115.42-21.19L105.51-21.19 105.51 0 100.72 0 100.72-26 105.51-26 105.51-21.41Q105.56-22.36 105.95-23.21 106.34-24.05 106.99-24.67 107.63-25.29 108.49-25.65 109.34-26 110.32-26L110.32-26 115.42-26Q116.42-26 117.29-25.62 118.16-25.24 118.82-24.6 119.47-23.95 119.85-23.07 120.23-22.19 120.23-21.19L120.23-21.19 120.23-16.8 115.42-16.8 115.42-21.19ZM148.21-21.19L148.21-10.55 131-10.55 131-4.81 148.21-4.81 148.21 0 131 0Q130.02 0 129.14-0.38 128.26-0.76 127.61-1.4 126.97-2.05 126.59-2.93 126.21-3.81 126.21-4.81L126.21-4.81 126.21-21.19Q126.21-22.19 126.59-23.07 126.97-23.95 127.61-24.6 128.26-25.24 129.14-25.62 130.02-26 131-26L131-26 143.4-26Q144.4-26 145.28-25.62 146.16-25.24 146.8-24.6 147.45-23.95 147.83-23.07 148.21-22.19 148.21-21.19L148.21-21.19ZM143.4-21.19L131-21.19 131-15.36 143.4-15.36 143.4-21.19ZM176.69 0L171.69 0 171.69-35.01 190.85-35.01Q199.35-35.01 199.35-26.49L199.35-26.49 199.35-21.51Q199.35-12.99 190.85-12.99L190.85-12.99 176.69-12.99 176.69 0ZM176.69-30L176.69-17.99 190.59-17.99Q192.59-17.99 193.47-18.87 194.35-19.75 194.35-21.75L194.35-21.75 194.35-26.25Q194.35-28.25 193.47-29.13 192.59-30 190.59-30L190.59-30 176.69-30ZM205.84-4.81L205.84-11.35Q205.84-12.35 206.22-13.22 206.6-14.09 207.25-14.75 207.89-15.41 208.77-15.78 209.65-16.16 210.63-16.16L210.63-16.16 223.03-16.16 223.03-21.19 207.33-21.19 207.33-26 223.03-26Q224.03-26 224.91-25.62 225.79-25.24 226.44-24.6 227.08-23.95 227.46-23.07 227.84-22.19 227.84-21.19L227.84-21.19 227.84 0 223.03 0 223.03-4.39Q222.96-3.49 222.54-2.69 222.13-1.88 221.48-1.28 220.83-0.68 220-0.34 219.17 0 218.24 0L218.24 0 210.63 0Q209.65 0 208.77-0.38 207.89-0.76 207.25-1.4 206.6-2.05 206.22-2.93 205.84-3.81 205.84-4.81L205.84-4.81ZM210.63-11.35L210.63-4.81 223.03-4.81 223.03-11.35 210.63-11.35ZM235.33-4.81L251.54-4.81 251.54-10.84 240.14-10.84Q239.14-10.84 238.26-11.22 237.38-11.6 236.74-12.24 236.09-12.89 235.71-13.77 235.33-14.65 235.33-15.65L235.33-15.65 235.33-21.19Q235.33-22.19 235.71-23.07 236.09-23.95 236.74-24.6 237.38-25.24 238.26-25.62 239.14-26 240.14-26L240.14-26 255.35-26 255.35-21.19 240.14-21.19 240.14-15.65 251.54-15.65Q252.54-15.65 253.41-15.27 254.28-14.89 254.94-14.25 255.6-13.6 255.97-12.72 256.35-11.84 256.35-10.84L256.35-10.84 256.35-4.81Q256.35-3.81 255.97-2.93 255.6-2.05 254.94-1.4 254.28-0.76 253.41-0.38 252.54 0 251.54 0L251.54 0 235.33 0 235.33-4.81ZM263.33-4.81L279.54-4.81 279.54-10.84 268.14-10.84Q267.14-10.84 266.26-11.22 265.38-11.6 264.74-12.24 264.09-12.89 263.71-13.77 263.33-14.65 263.33-15.65L263.33-15.65 263.33-21.19Q263.33-22.19 263.71-23.07 264.09-23.95 264.74-24.6 265.38-25.24 266.26-25.62 267.14-26 268.14-26L268.14-26 283.35-26 283.35-21.19 268.14-21.19 268.14-15.65 279.54-15.65Q280.54-15.65 281.41-15.27 282.28-14.89 282.94-14.25 283.6-13.6 283.97-12.72 284.35-11.84 284.35-10.84L284.35-10.84 284.35-4.81Q284.35-3.81 283.97-2.93 283.6-2.05 282.94-1.4 282.28-0.76 281.41-0.38 280.54 0 279.54 0L279.54 0 263.33 0 263.33-4.81ZM292.09-26L296.9-26 296.9 0 292.09 0 292.09-26ZM291.85-31.01L291.85-36.01 297.14-36.01 297.14-31.01 291.85-31.01ZM327.63-21.19L327.63-4.81Q327.63-3.81 327.26-2.93 326.88-2.05 326.23-1.4 325.58-0.76 324.72-0.38 323.85 0 322.85 0L322.85 0 309.93 0Q308.96 0 308.08-0.38 307.2-0.76 306.55-1.4 305.91-2.05 305.53-2.93 305.15-3.81 305.15-4.81L305.15-4.81 305.15-21.19Q305.15-22.19 305.53-23.07 305.91-23.95 306.55-24.6 307.2-25.24 308.08-25.62 308.96-26 309.93-26L309.93-26 322.85-26Q323.85-26 324.72-25.62 325.58-25.24 326.23-24.6 326.88-23.95 327.26-23.07 327.63-22.19 327.63-21.19L327.63-21.19ZM322.85-21.19L309.93-21.19 309.93-4.81 322.85-4.81 322.85-21.19ZM358.64-21.19L358.64 0 353.83 0 353.83-21.19 340.42-21.19 340.42 0 335.64 0 335.64-26 340.42-26 340.42-21.41Q340.47-22.36 340.86-23.21 341.25-24.05 341.9-24.67 342.55-25.29 343.4-25.65 344.26-26 345.23-26L345.23-26 353.83-26Q354.83-26 355.71-25.62 356.59-25.24 357.23-24.6 357.88-23.95 358.26-23.07 358.64-22.19 358.64-21.19L358.64-21.19ZM392.62-35.01L397.62-35.01 411.12 0 406.12 0 403.02-8.06 387.22-8.06 384.12 0 379.12 0 392.62-35.01ZM395.13-28.49L389.13-13.06 401.09-13.06 395.13-28.49ZM393.98-45L399.53-39.5 394.94-39.5 386.68-45 393.98-45ZM448.13 0L442.61 0 429.11-35.01 434.48-35.01 445.37-6.2 456.28-35.01 461.63-35.01 448.13 0ZM487.6-21.19L487.6-4.81Q487.6-3.81 487.23-2.93 486.85-2.05 486.2-1.4 485.55-0.76 484.69-0.38 483.82 0 482.82 0L482.82 0 469.9 0Q468.93 0 468.05-0.38 467.17-0.76 466.52-1.4 465.88-2.05 465.5-2.93 465.12-3.81 465.12-4.81L465.12-4.81 465.12-21.19Q465.12-22.19 465.5-23.07 465.88-23.95 466.52-24.6 467.17-25.24 468.05-25.62 468.93-26 469.9-26L469.9-26 482.82-26Q483.82-26 484.69-25.62 485.55-25.24 486.2-24.6 486.85-23.95 487.23-23.07 487.6-22.19 487.6-21.19L487.6-21.19ZM482.82-21.19L469.9-21.19 469.9-4.81 482.82-4.81 482.82-21.19ZM494.1-21.19L494.1-26 500.44-26 500.44-34.01 505.25-34.01 505.25-26 513.8-26 513.8-21.19 505.25-21.19 505.25-4.81 513.8-4.81 513.8 0 505.25 0Q504.28 0 503.4-0.38 502.52-0.76 501.86-1.4 501.2-2.05 500.82-2.93 500.44-3.81 500.44-4.81L500.44-4.81 500.44-21.19 494.1-21.19ZM536.5-21.19L526.59-21.19 526.59 0 521.8 0 521.8-26 526.59-26 526.59-21.41Q526.64-22.36 527.03-23.21 527.42-24.05 528.07-24.67 528.71-25.29 529.57-25.65 530.42-26 531.4-26L531.4-26 536.5-26Q537.5-26 538.37-25.62 539.23-25.24 539.89-24.6 540.55-23.95 540.93-23.07 541.31-22.19 541.31-21.19L541.31-21.19 541.31-16.8 536.5-16.8 536.5-21.19ZM569.29-21.19L569.29-10.55 552.07-10.55 552.07-4.81 569.29-4.81 569.29 0 552.07 0Q551.1 0 550.22-0.38 549.34-0.76 548.69-1.4 548.05-2.05 547.67-2.93 547.29-3.81 547.29-4.81L547.29-4.81 547.29-21.19Q547.29-22.19 547.67-23.07 548.05-23.95 548.69-24.6 549.34-25.24 550.22-25.62 551.1-26 552.07-26L552.07-26 564.48-26Q565.48-26 566.36-25.62 567.24-25.24 567.88-24.6 568.53-23.95 568.91-23.07 569.29-22.19 569.29-21.19L569.29-21.19ZM564.48-21.19L552.07-21.19 552.07-15.36 564.48-15.36 564.48-21.19ZM614.76-14.99L597.77-14.99Q596.75-14.99 595.83-15.39 594.92-15.8 594.23-16.47 593.55-17.14 593.16-18.05 592.77-18.97 592.77-20L592.77-20 592.77-30Q592.77-31.03 593.16-31.95 593.55-32.86 594.23-33.53 594.92-34.2 595.83-34.61 596.75-35.01 597.77-35.01L597.77-35.01 614.76-35.01Q615.79-35.01 616.71-34.61 617.62-34.2 618.3-33.53 618.99-32.86 619.38-31.95 619.77-31.03 619.77-30L619.77-30 619.77-25.49 614.76-25.49 614.76-30 597.77-30 597.77-20 614.76-20Q615.79-20 616.71-19.6 617.62-19.21 618.3-18.53 618.99-17.85 619.38-16.93 619.77-16.02 619.77-14.99L619.77-14.99 619.77-5Q619.77-3.98 619.38-3.06 618.99-2.15 618.3-1.46 617.62-0.78 616.71-0.39 615.79 0 614.76 0L614.76 0 597.28 0Q596.26 0 595.34-0.39 594.43-0.78 593.74-1.46 593.06-2.15 592.67-3.06 592.28-3.98 592.28-5L592.28-5 592.28-9.5 597.28-9.5 597.28-5 614.76-5 614.76-14.99ZM650.28-21.19L650.28-10.55 633.07-10.55 633.07-4.81 650.28-4.81 650.28 0 633.07 0Q632.1 0 631.22-0.38 630.34-0.76 629.69-1.4 629.04-2.05 628.67-2.93 628.29-3.81 628.29-4.81L628.29-4.81 628.29-21.19Q628.29-22.19 628.67-23.07 629.04-23.95 629.69-24.6 630.34-25.24 631.22-25.62 632.1-26 633.07-26L633.07-26 645.47-26Q646.48-26 647.35-25.62 648.23-25.24 648.88-24.6 649.53-23.95 649.91-23.07 650.28-22.19 650.28-21.19L650.28-21.19ZM645.47-21.19L633.07-21.19 633.07-15.36 645.47-15.36 645.47-21.19ZM672.99-21.19L663.07-21.19 663.07 0 658.29 0 658.29-26 663.07-26 663.07-21.41Q663.12-22.36 663.51-23.21 663.9-24.05 664.55-24.67 665.2-25.29 666.05-25.65 666.91-26 667.88-26L667.88-26 672.99-26Q673.99-26 674.85-25.62 675.72-25.24 676.38-24.6 677.04-23.95 677.42-23.07 677.8-22.19 677.8-21.19L677.8-21.19 677.8-16.8 672.99-16.8 672.99-21.19ZM696.18 0L691.17 0 680.77-26 685.78-26 693.66-5.76 701.57-26 706.58-26 696.18 0ZM711.82-26L716.63-26 716.63 0 711.82 0 711.82-26ZM711.58-31.01L711.58-36.01 716.88-36.01 716.88-31.01 711.58-31.01ZM742.07-21.19L729.67-21.19 729.67-4.81 742.07-4.81 742.07-9.2 746.88-9.2 746.88-4.81Q746.88-3.81 746.5-2.93 746.12-2.05 745.48-1.4 744.83-0.76 743.95-0.38 743.07 0 742.07 0L742.07 0 729.67 0Q728.69 0 727.81-0.38 726.93-0.76 726.29-1.4 725.64-2.05 725.26-2.93 724.88-3.81 724.88-4.81L724.88-4.81 724.88-21.19Q724.88-22.19 725.26-23.07 725.64-23.95 726.29-24.6 726.93-25.24 727.81-25.62 728.69-26 729.67-26L729.67-26 742.07-26Q743.07-26 743.95-25.62 744.83-25.24 745.48-24.6 746.12-23.95 746.5-23.07 746.88-22.19 746.88-21.19L746.88-21.19 746.88-16.8 742.07-16.8 742.07-21.19ZM776.88-21.19L776.88-10.55 759.67-10.55 759.67-4.81 776.88-4.81 776.88 0 759.67 0Q758.69 0 757.82-0.38 756.94-0.76 756.29-1.4 755.64-2.05 755.26-2.93 754.89-3.81 754.89-4.81L754.89-4.81 754.89-21.19Q754.89-22.19 755.26-23.07 755.64-23.95 756.29-24.6 756.94-25.24 757.82-25.62 758.69-26 759.67-26L759.67-26 772.07-26Q773.07-26 773.95-25.62 774.83-25.24 775.48-24.6 776.13-23.95 776.5-23.07 776.88-22.19 776.88-21.19L776.88-21.19ZM772.07-21.19L759.67-21.19 759.67-15.36 772.07-15.36 772.07-21.19Z" opacity="1" transform="matrix(1,0,0,1,0,0)" fill="#000000" class="slogan-text-1" data-fill-palette-color="quaternary" id="text-1"></path></svg></g></svg></g></svg></g></svg></g><g><svg viewBox="0 0 181.73736503643462 181.73736503643462" height="181.73736503643462" width="181.73736503643462"><g><svg xmlns="http://www.w3.org/2000/svg" xmlns:xlink="http://www.w3.org/1999/xlink" version="1.1" x="0" y="0" viewBox="10.6 10.6 78.80000000000001 78.80000000000001" style="enable-background:new 0 0 100 100;" xml:space="preserve" height="181.73736503643462" width="181.73736503643462" class="icon-icon-0" data-fill-palette-color="accent" id="icon-0"><path d="M77.8 22.2L50 10.6 22.2 22.2 10.6 50l11.5 27.8L50 89.4l27.8-11.5L89.4 50 77.8 22.2zM86.9 48.5l-12.5-3.4c0-0.2 0-0.4 0-0.6 0-2-1.1-3.8-2.7-4.8l5.6-14.7L86.9 48.5zM45.8 60.3c-0.3-2.3-1.6-4.2-3.5-5.3l5-12.1c0.9 0.3 1.8 0.4 2.7 0.4s1.9-0.1 2.7-0.4l6.2 15c-0.8 0.6-1.4 1.4-1.6 2.4H45.8zM61.2 57.2c-0.2 0-0.4 0-0.7 0.1l-6.2-15c1.3-0.7 2.3-1.7 3.1-2.9l6.2 3.4c-0.2 0.6-0.3 1.2-0.3 1.8 0 1.9 1 3.6 2.4 4.6L62 57.3C61.7 57.2 61.5 57.2 61.2 57.2zM38.7 54c-0.8 0-1.6 0.1-2.3 0.4l-5.6-11.6c0.9-0.7 1.5-1.8 1.5-3.1 0 0 0 0 0-0.1l9.3-2.3c0.7 2.1 2.2 3.9 4.2 4.9l-5 12C40.1 54.1 39.4 54 38.7 54zM68.8 39.1c-1.8 0-3.3 0.8-4.3 2.1l-6.2-3.4c0.5-1.1 0.7-2.3 0.7-3.5 0-1-0.2-1.9-0.5-2.8l17-7.1L70 39.2C69.6 39.1 69.2 39.1 68.8 39.1zM41.1 35.6l-9.3 2.3c-0.7-1.3-2-2.2-3.6-2.2-0.1 0-0.2 0-0.3 0l-3.6-11.3 17.1 7.1c-0.3 0.9-0.5 1.8-0.5 2.8C41 34.8 41 35.2 41.1 35.6zM25.4 42.5c0.7 0.7 1.7 1.2 2.8 1.2 0.3 0 0.6 0 0.9-0.1l5.6 11.6c-1 0.6-1.8 1.5-2.4 2.5l-18.7-7.7L25.4 42.5zM63.6 58l3.8-8.1c0.5 0.1 1 0.2 1.5 0.2 2.2 0 4.2-1.3 5-3.2l12.1 3.2L64.5 59C64.3 58.6 63.9 58.3 63.6 58zM76.7 24L76.7 24 76.7 24 76.7 24zM57.8 29.9c-1.4-2.5-4-4.2-6.9-4.5V12.9l24 9.9L57.8 29.9zM49.1 12.9v12.5c-3 0.3-5.5 2-6.9 4.5l-17.1-7.1L49.1 12.9zM22.8 25.2l3.5 11c-1.2 0.7-2 2-2 3.4 0 0.5 0.1 0.9 0.3 1.4l-11.2 7.1L22.8 25.2zM12.7 49.5L12.7 49.5 12.7 49.5 12.7 49.5zM13.2 51.6l18.5 7.7c-0.2 0.6-0.3 1.2-0.3 1.9 0 1.7 0.6 3.2 1.6 4.5l-9.9 10L13.2 51.6zM23.5 76.5L23.5 76.5 23.5 76.5 23.5 76.5zM24.4 76.9l9.9-10c1.2 0.9 2.7 1.5 4.4 1.5 0.7 0 1.4-0.1 2-0.3l7.7 18.7L24.4 76.9zM42.3 67.4c1.9-1.1 3.3-3.1 3.5-5.4h11.5c0.2 1 0.8 1.9 1.7 2.4L50 86.1 42.3 67.4zM60.6 65.1c0.2 0 0.4 0.1 0.6 0.1 0.8 0 1.5-0.2 2.1-0.6l12.3 12.3-24 9.9L60.6 65.1zM76.9 75.6L64.5 63.3c0.4-0.6 0.6-1.3 0.6-2.1 0-0.2 0-0.4-0.1-0.6l21.7-9L76.9 75.6zM87.3 49.5L87.3 49.5 87.3 49.5 87.3 49.5z" fill="#c4f649" data-fill-palette-color="accent"></path></svg></g></svg></g></svg></g><defs></defs></svg><rect width="395.52" height="122.04108754146925" fill="none" stroke="none" visibility="hidden"></rect></g></svg></g></svg>